<svg width="32" height="32" viewBox="0 0 32 32" fill="none" xmlns="http://www.w3.org/2000/svg">
<rect width="32" height="32" rx="16" fill="white" style="fill:white;fill-opacity:1;"/>
<path fill-rule="evenodd" clip-rule="evenodd" d="M7.19646 16.7289C7.32616 17.0419 7.51626 17.3262 7.7559 17.5657L10.4809 20.2889C10.9644 20.7719 11.6198 21.0431 12.3032 21.0431C12.9866 21.0431 13.642 20.7719 14.1256 20.2889L16.3055 18.1107L22.8179 24.6214C22.9376 24.7412 23.0797 24.8364 23.2361 24.9014C23.3925 24.9663 23.5602 24.9998 23.7296 25C23.899 25.0002 24.0667 24.967 24.2233 24.9023C24.3798 24.8376 24.5221 24.7427 24.642 24.6231C24.7619 24.5034 24.857 24.3613 24.922 24.2049C24.987 24.0485 25.0205 23.8808 25.0206 23.7114C25.0208 23.542 24.9876 23.3743 24.9229 23.2177C24.8582 23.0612 24.7634 22.9189 24.6437 22.799L18.1279 16.2849L20.2889 14.1256C20.7724 13.642 21.044 12.9862 21.044 12.3024C21.044 11.6185 20.7724 10.9627 20.2889 10.4791L17.5674 7.7559C17.328 7.51626 17.0436 7.32616 16.7306 7.19646C16.4176 7.06676 16.0821 7 15.7434 7C15.4046 7 15.0691 7.06676 14.7561 7.19646C14.4431 7.32616 14.1588 7.51626 13.9193 7.7559L7.7559 13.9176C7.51626 14.157 7.32616 14.4414 7.19646 14.7544C7.06676 15.0674 7 15.4028 7 15.7416C7 16.0804 7.06676 16.4159 7.19646 16.7289Z" fill="#191007" style="fill:#191007;fill:color(display-p3 0.0966 0.0616 0.0292);fill-opacity:1;"/>
</svg>